#!OML:ASF H:\MichaelJackson\Top Level 1\Subject 1\Session 1\male.ASF
:FULLY-SPECIFIED
:DEGREES
1037
root -0.802353 15.1676 43.8042 6.53046 3.68646 3.08338
lowerback -2.30426 -1.48424 -0.962501
upperback -2.71753 -2.02897 -5.40722
thorax -1.67149 -1.05853 -5.06437
lowerneck -6.84047 -1.06145 2.45318
upperneck -0.360203 -1.67925 3.98806
head 1.04602 -0.769091 0.775692
rclavicle -1.43249e-014 3.33958e-014
rhumerus 7.18146 -12.9345 0.966838
rradius 31.5024
rwrist -5.80565
rhand -26.4693 -43.5777
rfingers 7.12502
rthumb 0.0925026 286.443
lclavicle -1.43249e-014 3.33958e-014
lhumerus -57.0869 -33.4167 110.079
lradius 54.6976
lwrist 24.8413
lhand 36.2339 31.4622
lfingers 7.12502
lthumb 59.2068 46.0491
rfemur -25.9856 -21.3843 -7.28579
rtibia 52.7791
rfoot -25.8307 13.6221
rtoes -40.1329
lfemur -1.32619 -20.5936 3.31421
ltibia 17.7521
lfoot -25.4334 12.8991
ltoes -29.2569
1038
root -0.838775 15.1611 43.7936 6.352 3.26669 3.03423
lowerback -1.90383 -1.31445 -0.934413
upperback -2.63489 -1.81523 -5.40344
thorax -1.79402 -0.951803 -5.06593
lowerneck -6.80306 -1.03578 2.51922
upperneck -0.616668 -1.63582 3.888
head 0.955796 -0.75544 0.734934
rclavicle -6.19338e-015 -1.27222e-014
rhumerus 8.60219 -20.2681 -0.110951
rradius 27.6308
rwrist -2.49328
rhand -27.811 -46.2129
rfingers 7.12502
rthumb -1.20335 283.811
lclavicle -6.19338e-015 -1.27222e-014
lhumerus -57.1405 -33.8668 110.339
lradius 54.6674
lwrist 23.0402
lhand 37.4031 29.782
lfingers 7.12502
lthumb 60.2098 43.3402
rfemur -26.2397 -21.8884 -7.082
rtibia 53.0347
rfoot -26.1766 14.5162
rtoes -39.6448
lfemur -0.860028 -19.9841 3.41961
ltibia 17.4138
lfoot -25.2323 12.3869
ltoes -29.1871
1039
root -0.874929 15.1568 43.7873 6.1914 2.94234 2.97101
lowerback -1.53884 -1.16288 -0.887771
upperback -2.57344 -1.62533 -5.4161
thorax -1.92171 -0.857895 -5.09827
lowerneck -6.74505 -1.0011 2.63564
upperneck -0.822702 -1.58628 3.82363
head 0.878252 -0.737222 0.697227
rclavicle 3.51538e-014 7.31528e-014
rhumerus 9.68387 -26.6813 -1.07222
rradius 25.0933
rwrist -0.265283
rhand -29.1084 -47.8895
rfingers 7.12502
rthumb -2.45639 282.145
lclavicle 3.51538e-014 7.31528e-014
lhumerus -57.2223 -34.2295 110.494
lradius 54.5904
lwrist 20.6467
lhand 39.0984 27.3128
lfingers 7.12502
lthumb 61.6437 39.2434
rfemur -26.3715 -22.3464 -6.82241
rtibia 53.1946
rfoot -26.5961 15.0621
rtoes -39.0762
lfemur -0.442874 -19.707 3.52096
ltibia 17.1141
lfoot -24.9642 12.1615
ltoes -29.1698
1040
root -0.909757 15.1544 43.7856 6.08663 2.70367 2.89536
lowerback -1.26335 -1.04145 -0.825473
upperback -2.54001 -1.47327 -5.44126
thorax -2.03185 -0.783662 -5.15589
lowerneck -6.67283 -0.947402 2.79654
upperneck -0.978497 -1.51684 3.81204
head 0.814519 -0.707398 0.669125
rclavicle 1.78029e-014 1.27222e-014
rhumerus 10.065 -30.7159 -1.32784
rradius 23.7825
rwrist -0.031927
rhand -30.4454 -48.664
rfingers 7.12502
rthumb -3.7476 281.389
lclavicle 1.78029e-014 1.27222e-014
lhumerus -57.3276 -34.4736 110.548
lradius 54.495
lwrist 18.0434
lhand 40.9331 24.4238
lfingers 7.12502
lthumb 63.164 34.3887
rfemur -26.4521 -22.7871 -6.5025
rtibia 53.2927
rfoot -27.0989 15.2697
rtoes -38.5706
lfemur -0.109194 -19.758 3.61194
ltibia 16.8694
lfoot -24.6479 12.2658
ltoes -29.2046
1041
root -0.942094 15.1536 43.7886 6.07153 2.54019 2.80077
lowerback -1.12805 -0.958103 -0.742478
upperback -2.53276 -1.36744 -5.4686
thorax -2.09437 -0.733046 -5.2306
lowerneck -6.60307 -0.871413 2.98932
upperneck -1.08886 -1.42236 3.85315
head 0.765939 -0.663421 0.65267
rclavicle 6.73228e-015 -1.59028e-015
rhumerus 9.44246 -31.5309 -0.453532
rradius 23.4866
rwrist -2.03529
rhand -31.6609 -48.8252
rfingers 7.12502
rthumb -4.92127 281.252
lclavicle 6.73228e-015 -1.59028e-015
lhumerus -57.4531 -34.6222 110.543
lradius 54.4003
lwrist 15.6732
lhand 42.5075 21.5979
lfingers 7.12502
lthumb 64.4383 29.683
rfemur -26.5526 -23.2212 -6.11692
rtibia 53.3624
rfoot -27.6303 15.2163
rtoes -38.1481
lfemur 0.104724 -20.1042 3.70393
ltibia 16.6917
lfoot -24.3135 12.6875
ltoes -29.2441
1042
root -0.971053 15.1537 43.795 6.15579 2.43242 2.69089
lowerback -1.14803 -0.923064 -0.646421
upperback -2.54675 -1.32085 -5.48859
thorax -2.09645 -0.712108 -5.30719
lowerneck -6.55011 -0.762431 3.21098
upperneck -1.15994 -1.2884 3.92459
head 0.732665 -0.598409 0.641698
rclavicle 8.19987e-016 4.45278e-014
rhumerus 8.13514 -29.6854 1.1948
rradius 23.8694
rwrist -5.20421
rhand -32.4787 -48.3931
rfingers 7.12502
rthumb -5.71092 281.704
lclavicle 8.19987e-016 4.45278e-014
lhumerus -57.5961 -34.7204 110.533
lradius 54.3066
lwrist 13.9057
lhand 43.612 19.2806
lfingers 7.12502
lthumb 65.3131 25.9274
rfemur -26.7215 -23.6352 -5.68378
rtibia 53.4327
rfoot -28.1173 15.0122
rtoes -37.7623
lfemur 0.190469 -20.6728 3.79725
ltibia 16.5873
lfoot -23.9867 13.3879
ltoes -29.2767
1043
root -0.996121 15.1541 43.8036 6.33544 2.36338 2.57136
lowerback -1.31584 -0.934389 -0.531201
upperback -2.5762 -1.33135 -5.49846
thorax -2.03652 -0.719723 -5.38588
lowerneck -6.5144 -0.624704 3.44717
upperneck -1.20473 -1.1189 3.9989
head 0.710591 -0.51494 0.630004
rclavicle 1.16134e-014 9.85972e-014
rhumerus 6.70627 -26.5101 2.97236
rradius 24.5775
rwrist -7.93081
rhand -32.5872 -47.4887
rfingers 7.12502
rthumb -5.81566 282.611
lclavicle 1.16134e-014 9.85972e-014
lhumerus -57.7661 -34.7975 110.566
lradius 54.2248
lwrist 12.9808
lhand 44.1174 17.8403
lfingers 7.12502
lthumb 65.7075 23.7934
rfemur -26.9846 -24.0067 -5.2293
rtibia 53.5231
rfoot -28.5313 14.7523
rtoes -37.4683
lfemur 0.154735 -21.385 3.89419
ltibia 16.549
lfoot -23.6937 14.3009
ltoes -29.2919
1044
root -1.0172 15.154 43.8124 6.58862 2.313 2.44615
lowerback -1.60483 -0.991056 -0.402091
upperback -2.61021 -1.3985 -5.48663
thorax -1.91821 -0.755251 -5.45152
lowerneck -6.49818 -0.457781 3.67899
upperneck -1.23156 -0.911604 4.04496
head 0.69745 -0.412378 0.61118
rclavicle 3.80176e-015 -1.59028e-015
rhumerus 5.52712 -23.16 4.47151
rradius 25.3556
rwrist -9.30368
rhand -31.9668 -46.3246
rfingers 7.12502
rthumb -5.21669 283.76
lclavicle 3.80176e-015 -1.59028e-015
lhumerus -57.9438 -34.8591 110.659
lradius 54.1615
lwrist 12.9431
lhand 44.0879 17.441
lfingers 7.12502
lthumb 65.6847 23.4351
rfemur -27.3427 -24.3067 -4.78186
rtibia 53.645
rfoot -28.8275 14.5508
rtoes -37.1814
lfemur 0.0244243 -22.1633 3.99739
ltibia 16.5634
lfoot -23.4569 15.3447
ltoes -29.2762
1045
root -1.03457 15.1527 43.8199 6.88216 2.2612 2.33041
lowerback -1.96522 -1.08312 -0.273673
upperback -2.64061 -1.51092 -5.44939
thorax -1.75991 -0.812655 -5.49208
lowerneck -6.50142 -0.270016 3.89122
upperneck -1.24732 -0.676202 4.03156
head 0.69118 -0.296058 0.577924
rclavicle 1.65364e-014 -3.49861e-014
rhumerus 4.71946 -20.3907 5.56425
rradius 26.0158
rwrist -9.16519
rhand -30.765 -45.0898
rfingers 7.12502
rthumb -4.05623 284.969
lclavicle 1.65364e-014 -3.49861e-014
lhumerus -58.1232 -34.9277 110.834
lradius 54.1227
lwrist 13.6972
lhand 43.6021 18.0297
lfingers 7.12502
lthumb 65.3053 24.6899
rfemur -27.7747 -24.5077 -4.38019
rtibia 53.8013
rfoot -29.0035 14.4636
rtoes -36.8766
lfemur -0.156689 -22.9572 4.08909
ltibia 16.6092
lfoot -23.2725 16.4662
ltoes -29.2362
1046
root -1.04869 15.1497 43.8245 7.17507 2.19145 2.22777
lowerback -2.33279 -1.19844 -0.151799
upperback -2.66224 -1.65462 -5.38522
thorax -1.59091 -0.885001 -5.50221
lowerneck -6.51841 -0.0722624 4.07399
upperneck -1.25643 -0.425986 3.94701
head 0.689698 -0.172901 0.528001
rclavicle -2.22701e-014 -4.29375e-014
rhumerus 4.28848 -18.4796 6.26966
rradius 26.4365
rwrist -8.07058
rhand -29.2904 -43.8834
rfingers 7.12502
rthumb -2.63221 286.153
lclavicle -2.22701e-014 -4.29375e-014
lhumerus -58.3054 -35.0136 111.096
lradius 54.1165
lwrist 15.0612
lhand 42.6681 19.3637
lfingers 7.12502
lthumb 64.5666 27.246
rfemur -28.2456 -24.603 -4.0439
rtibia 53.9908
rfoot -29.0693 14.524
rtoes -36.5044
lfemur -0.333968 -23.7502 4.15759
ltibia 16.6638
lfoot -23.1387 17.623
ltoes -29.1961
1047
root -1.06016 15.1444 43.8258 7.42818 2.0882 2.15496
lowerback -2.65478 -1.32366 -0.0600379
upperback -2.66906 -1.8129 -5.29962
thorax -1.43226 -0.963689 -5.47334
lowerneck -6.53706 0.123264 4.22031
upperneck -1.27248 -0.175488 3.79761
head 0.686994 -0.0505765 0.464183
rclavicle 3.0265e-014 -9.54166e-015
rhumerus 4.17305 -17.3997 6.65519
rradius 26.6096
rwrist -6.8265
rhand -27.8798 -42.9577
rfingers 7.12502
rthumb -1.26986 287.066
lclavicle 3.0265e-014 -9.54166e-015
lhumerus -58.4736 -35.1095 111.416
lradius 54.1434
lwrist 16.7109
lhand 41.488 21.0672
lfingers 7.12502
lthumb 63.6166 30.3912
rfemur -28.7159 -24.6055 -3.79832
rtibia 54.2083
rfoot -29.0501 14.7282
rtoes -36.0373
lfemur -0.450632 -24.5378 4.17116
ltibia 16.7051
lfoot -23.0474 18.7784
ltoes -29.1571
